<?xml version="1.0" encoding="iso-8859-1"?>
<!-- Uploaded to: SVG Repo, www.svgrepo.com, Generator: SVG Repo Mixer Tools -->
<!DOCTYPE svg PUBLIC "-//W3C//DTD SVG 1.1//EN" "http://www.w3.org/Graphics/SVG/1.1/DTD/svg11.dtd">
<svg fill="#000000" height="800px" width="800px" version="1.1" id="Capa_1" xmlns="http://www.w3.org/2000/svg" xmlns:xlink="http://www.w3.org/1999/xlink" 
	 viewBox="0 0 297 297" xml:space="preserve">
<g>
	<path d="M270.099,10.501c-1.27-5.499-6.757-8.93-12.255-7.657L93.566,40.784c-5.5,1.27-8.928,6.757-7.657,12.255
		c1.091,4.725,5.296,7.921,9.947,7.921c0.761,0,1.534-0.086,2.308-0.265l164.277-37.939
		C267.941,21.486,271.369,15.999,270.099,10.501z"/>
	<path d="M81.863,26.444c0.874,3.78,4.237,6.338,7.959,6.338c0.608,0,1.227-0.069,1.846-0.212c4.398-1.016,7.142-5.405,6.126-9.804
		L94.001,6.339c-1.017-4.399-5.403-7.146-9.804-6.126c-4.399,1.016-7.143,5.405-6.126,9.804L81.863,26.444z"/>
	<path d="M105.459,100.483c0.608,0,1.226-0.069,1.846-0.212c4.399-1.016,7.142-5.405,6.126-9.804l-3.794-16.429
		c-1.016-4.4-5.406-7.145-9.804-6.126c-4.4,1.017-7.143,5.406-6.126,9.805l3.794,16.428
		C98.374,97.926,101.737,100.483,105.459,100.483z"/>
	<path d="M46.576,70.298c0.608,0,1.226-0.069,1.846-0.212l16.428-3.794c4.4-1.016,7.143-5.405,6.126-9.805
		c-1.017-4.399-5.404-7.144-9.804-6.126l-16.428,3.794c-4.4,1.017-7.143,5.406-6.126,9.805
		C39.491,67.742,42.854,70.298,46.576,70.298z"/>
	<path d="M54.607,36.662l14.3,8.934c1.349,0.842,2.845,1.242,4.324,1.242c2.725,0,5.391-1.362,6.94-3.844
		c2.393-3.828,1.228-8.872-2.601-11.265l-14.3-8.933c-3.833-2.395-8.873-1.227-11.266,2.6
		C49.614,29.225,50.779,34.268,54.607,36.662z"/>
	<path d="M73.893,67.184l-8.933,14.3c-2.393,3.829-1.229,8.872,2.601,11.266c1.347,0.841,2.845,1.242,4.323,1.242
		c2.726,0,5.391-1.363,6.941-3.844l8.934-14.3c2.393-3.829,1.228-8.872-2.601-11.265C81.33,62.192,76.285,63.358,73.893,67.184z"/>
	<path d="M224.712,142.193H68.213c1.757,6.927,3.589,15.395,5.061,25.035H219.67C221.137,157.59,222.962,149.122,224.712,142.193z"
		/>
	<path d="M217.887,181.534H75.058c2.813,28.988,1.418,65.323-13.034,101.453c-1.26,3.148-0.875,6.716,1.026,9.523
		c1.901,2.807,5.07,4.489,8.461,4.489h149.867c3.391,0,6.561-1.683,8.461-4.489c1.901-2.808,2.286-6.376,1.027-9.523
		C216.445,246.934,215.068,210.564,217.887,181.534z"/>
	<path d="M256.036,107.962H36.854c-5.643,0-10.218,4.575-10.218,10.219c0,5.642,4.575,10.218,10.218,10.218h219.182
		c5.644,0,10.219-4.575,10.219-10.218C266.255,112.537,261.68,107.962,256.036,107.962z"/>
</g>
</svg>